<?xml version="1.0" encoding="UTF-8" standalone="no"?>
<!-- Created with Inkscape (http://www.inkscape.org/) -->

<svg
   xmlns:dc="http://purl.org/dc/elements/1.1/"
   xmlns:cc="http://creativecommons.org/ns#"
   xmlns:rdf="http://www.w3.org/1999/02/22-rdf-syntax-ns#"
   xmlns:svg="http://www.w3.org/2000/svg"
   xmlns="http://www.w3.org/2000/svg"
   xmlns:sodipodi="http://sodipodi.sourceforge.net/DTD/sodipodi-0.dtd"
   xmlns:inkscape="http://www.inkscape.org/namespaces/inkscape"
   width="24.316999mm"
   height="5.527mm"
   viewBox="0 0 24.316999 5.527"
   version="1.1"
   id="svg6848"
   inkscape:version="0.92.5 (2060ec1f9f, 2020-04-08)"
   sodipodi:docname="PartsPlus.svg">
  <defs
     id="defs6842" />
  <sodipodi:namedview
     id="base"
     pagecolor="#ffffff"
     bordercolor="#666666"
     borderopacity="1.0"
     inkscape:pageopacity="0.0"
     inkscape:pageshadow="2"
     inkscape:zoom="11.313709"
     inkscape:cx="49.164704"
     inkscape:cy="23.729257"
     inkscape:document-units="mm"
     inkscape:current-layer="layer1"
     showgrid="false"
     inkscape:window-width="1855"
     inkscape:window-height="1056"
     inkscape:window-x="65"
     inkscape:window-y="24"
     inkscape:window-maximized="1" />
  <metadata
     id="metadata6845">
    <rdf:RDF>
      <cc:Work
         rdf:about="">
        <dc:format>image/svg+xml</dc:format>
        <dc:type
           rdf:resource="http://purl.org/dc/dcmitype/StillImage" />
        <dc:title></dc:title>
      </cc:Work>
    </rdf:RDF>
  </metadata>
  <g
     inkscape:label="Layer 1"
     inkscape:groupmode="layer"
     id="layer1"
     transform="translate(0,-291.473)">
    <g
       id="g6149"
       transform="matrix(0.35277204,0,0,-0.35277777,-47.84051,366.6632)">
      <path
         d="m 162.1264,204.5324 h 1.0752 c 0.5893,0 1.1475,0.4859 1.2509,1.065 l 0.6925,3.9492 c 0.1035,0.5891 -0.2894,1.0647 -0.8787,1.0647 h -2.1399 l -1.4473,-8.2085 h 1.0646 z m 1.747,5.0142 c 0.114,0 0.1965,-0.0827 0.1656,-0.2069 l -0.6203,-3.5356 c -0.0207,-0.1137 -0.1241,-0.2067 -0.2378,-0.2067 h -0.8685 l 0.6928,3.9492 z m 4.6627,1.0647 h -1.6747 l -0.1862,-1.0647 h 1.468 c 0.1137,0 0.1965,-0.0827 0.1656,-0.2069 l -0.1449,-0.858 h -1.0751 c -0.5894,0 -1.1475,-0.4757 -1.251,-1.0647 l -0.3206,-1.8196 c -0.1032,-0.5791 0.2897,-1.065 0.8788,-1.065 h 2.1401 l 0.8788,5.0142 c 0.1034,0.5891 -0.2895,1.0647 -0.8788,1.0647 z m -0.8787,-5.0139 h -0.8685 c -0.1137,0 -0.1965,0.093 -0.1758,0.2067 l 0.2483,1.4059 c 0.0204,0.1242 0.1344,0.207 0.248,0.207 h 0.8686 z m 5.1486,5.0139 h -1.0755 c -0.5891,0 -1.1475,-0.4756 -1.2509,-1.0647 l -0.8788,-5.0142 h 1.065 l 0.8373,4.8073 c 0.0207,0.1137 0.1344,0.2069 0.2484,0.2069 h 0.8682 z m 2.7807,-1.0647 0.1863,1.0647 h -1.0752 l 0.1859,1.065 h -1.0646 l -1.065,-6.0789 c -0.1035,-0.5893 0.2894,-1.065 0.8787,-1.065 h 1.0752 l 0.1862,1.065 h -0.8685 c -0.1137,0 -0.1964,0.093 -0.1757,0.2067 l 0.6616,3.7425 z m 2.926,-2.2745 -1.2303,1.3853 c -0.1964,0.2274 -0.0725,0.4964 -0.021,0.5686 0.0414,0.0723 0.207,0.3206 0.5276,0.3206 h 1.3541 l 0.1862,1.0647 h -1.3544 c -0.341,0 -0.6616,-0.0929 -0.9717,-0.2894 -0.2792,-0.1757 -0.5065,-0.4136 -0.6721,-0.703 -0.1652,-0.2894 -0.248,-0.5893 -0.2378,-0.8892 0.0105,-0.3203 0.1241,-0.6097 0.3206,-0.8476 l 1.2404,-1.3855 c 0.1965,-0.2274 0.0726,-0.4961 0.0207,-0.5684 -0.0411,-0.0725 -0.2066,-0.3308 -0.5272,-0.3308 h -1.6333 l -0.1863,-1.065 h 1.6336 c 0.3308,0 0.6616,0.1035 0.9717,0.2999 0.2688,0.1758 0.5066,0.4136 0.6721,0.703 0.1653,0.2895 0.2379,0.5894 0.2379,0.889 -0.0105,0.3206 -0.1242,0.61 -0.3308,0.8478 z m 1.9227,-2.7397 h 1.0752 c 0.5893,0 1.1477,0.4859 1.2509,1.065 l 0.6928,3.9492 c 0.1035,0.5891 -0.2894,1.0647 -0.8787,1.0647 h -2.1402 l -1.4474,-8.2085 h 1.065 z m 1.7473,5.0142 c 0.1136,0 0.1964,-0.0827 0.1652,-0.2069 l -0.6202,-3.5356 c -0.0207,-0.1137 -0.1241,-0.2067 -0.2378,-0.2067 h -0.8683 l 0.6925,3.9492 z m 2.5225,-5.0142 1.4474,8.2086 h -1.065 l -1.4473,-8.2086 z m 4.2696,6.0789 -0.8476,-4.8072 c -0.0207,-0.1137 -0.1241,-0.2067 -0.2378,-0.2067 h -0.6616 c -0.1137,0 -0.1965,0.093 -0.1758,0.2067 l 0.8476,4.8072 h -1.0647 l -0.8787,-5.0139 c -0.1035,-0.5791 0.2894,-1.065 0.8787,-1.065 h 1.0752 c 0.5893,0 1.1474,0.4859 1.2509,1.065 l 0.8787,5.0139 z m 4.0422,-3.3392 -1.2303,1.3853 c -0.1964,0.2274 -0.0722,0.4964 -0.0207,0.5686 0.0414,0.0723 0.207,0.3206 0.5276,0.3206 h 1.3541 l 0.1862,1.0647 h -1.3544 c -0.341,0 -0.6616,-0.0929 -0.9717,-0.2894 -0.2792,-0.1757 -0.5065,-0.4136 -0.6721,-0.703 -0.1652,-0.2894 -0.248,-0.5893 -0.2378,-0.8892 0.0105,-0.3203 0.1241,-0.6097 0.3206,-0.8476 l 1.2404,-1.3855 c 0.1965,-0.2274 0.0726,-0.4961 0.0207,-0.5684 -0.0411,-0.0725 -0.2066,-0.3308 -0.5272,-0.3308 h -1.6333 l -0.1863,-1.065 h 1.6336 c 0.3308,0 0.6616,0.1035 0.9717,0.2999 0.2688,0.1758 0.5066,0.4136 0.6721,0.703 0.1653,0.2895 0.2379,0.5894 0.2379,0.889 -0.0105,0.3206 -0.1242,0.61 -0.3311,0.8478 z m 2.1092,-1.6747 h -1.0649 l -0.186,-1.065 h 1.0647 z m 4.0836,5.0139 h -1.675 l -0.1859,-1.0647 h 1.468 c 0.1137,0 0.1965,-0.0827 0.1653,-0.2069 l -0.1446,-0.858 h -1.0751 c -0.5894,0 -1.1478,-0.4757 -1.251,-1.0647 l -0.3206,-1.8196 c -0.1034,-0.5791 0.2894,-1.065 0.8788,-1.065 h 2.1401 l 0.8788,5.0142 c 0.1034,0.5891 -0.2895,1.0647 -0.8788,1.0647 z m -0.8787,-5.0139 h -0.8685 c -0.1137,0 -0.1965,0.093 -0.1758,0.2067 l 0.248,1.4059 c 0.0207,0.1242 0.1344,0.207 0.2483,0.207 h 0.8683 z m 3.3185,0 2.7085,3.9388 0.1862,1.0751 h -3.2048 l -0.1862,-1.0647 h 2.016 l -2.7085,-3.939 -0.1863,-1.0752 h 3.2049 l 0.1862,1.065 z"
         style="fill:#333333;fill-opacity:1;fill-rule:nonzero;stroke:none"
         id="path6151"
         inkscape:connector-curvature="0" />
      <g
         id="g6153">
        <path
           d="m 139.8881,202.3432 0.3078,1.7768 h -4.271 l -0.3118,-1.8068 2.9614,-0.004 h 1.3076 l 0.006,0.0343 z m 2.3187,-4.8727 0.8359,4.8413 h 9.2724 c 3.4711,0 4.8989,1.1517 5.6163,5.2534 0.15,0.8589 0.241,1.6129 0.241,2.2482 0,2.0282 -1.1089,3.3233 -3.8325,3.3233 H 142.922 l -2.7145,-15.6662 z m 1.1492,6.6495 1.2534,7.2082 h 9.1517 c 1.7357,0 2.3865,-0.4396 2.3865,-1.7835 0,-0.5378 -0.0964,-1.3198 -0.2891,-2.3704 -0.4578,-2.4922 -1.1092,-3.0543 -3.447,-3.0543 z"
           style="fill:#e52727;fill-opacity:1;fill-rule:evenodd;stroke:none"
           id="path6155"
           inkscape:connector-curvature="0" />
        <path
           d="m 147.6062,209.111 c 0.1531,0.1828 0.4252,0.2069 0.6081,0.0538 0.1828,-0.1528 0.2069,-0.4252 0.0538,-0.6077 l -1.881,-2.2422 c -0.1528,-0.1829 -0.425,-0.207 -0.6078,-0.0539 -0.1828,0.1528 -0.2072,0.4252 -0.0541,0.608 z"
           style="fill:#e52727;fill-opacity:1;fill-rule:nonzero;stroke:none"
           id="path6157"
           inkscape:connector-curvature="0" />
        <path
           d="m 152.9912,209.111 c 0.1531,0.1828 0.4252,0.2069 0.608,0.0538 0.1826,-0.1528 0.207,-0.4252 0.0539,-0.6077 l -1.8811,-2.2422 c -0.1528,-0.1829 -0.4252,-0.207 -0.608,-0.0539 -0.1826,0.1528 -0.2069,0.4252 -0.0539,0.608 z"
           style="fill:#e52727;fill-opacity:1;fill-rule:nonzero;stroke:none"
           id="path6159"
           inkscape:connector-curvature="0" />
        <path
           d="m 150.675,209.5594 c 0.1528,0.1828 0.4252,0.2069 0.6081,0.0539 0.1825,-0.1528 0.2066,-0.4252 0.0538,-0.6081 l -2.6337,-3.1388 c -0.1527,-0.1828 -0.4249,-0.2069 -0.6077,-0.0538 -0.1828,0.1528 -0.2069,0.4252 -0.0541,0.608 z"
           style="fill:#e52727;fill-opacity:1;fill-rule:nonzero;stroke:none"
           id="path6161"
           inkscape:connector-curvature="0" />
      </g>
    </g>
  </g>
</svg>
